<?xml version="1.0" encoding="UTF-8"?>
<svg id="Layer_2" data-name="Layer 2" xmlns="http://www.w3.org/2000/svg" viewBox="0 0 16 20">
  <defs>
    <style>
      .cls-1 {
        fill: #000;
        stroke-width: 0px;
      }
    </style>
  </defs>
  <g id="Layer_1-2" data-name="Layer 1">
    <path class="cls-1" d="M10,0H2C.9,0,0,.9,0,2v16c0,1.1.9,2,2,2h12c1.1,0,2-.9,2-2V6L10,0ZM7.26,14.19c0,1.34-.64,1.81-1.68,1.81-.24,0-.57-.04-.78-.11l.12-.86c.15.05.34.08.55.08.45,0,.73-.2.73-.94v-2.97h1.06v2.98ZM9.3,15.99c-.54,0-1.07-.14-1.34-.29l.22-.88c.29.15.73.29,1.18.29.49,0,.75-.2.75-.51s-.22-.46-.79-.67c-.78-.27-1.3-.71-1.3-1.39,0-.81.67-1.42,1.79-1.42.53,0,.93.11,1.2.24l-.24.86c-.19-.09-.52-.22-.99-.22s-.69.21-.69.45c0,.3.27.44.88.66.83.31,1.23.74,1.23,1.41,0,.79-.61,1.47-1.91,1.47ZM10,7h-1V2l5,5h-4Z"/>
  </g>
</svg>