<?xml version="1.0" encoding="UTF-8"?>
<svg id="Layer_2" data-name="Layer 2" xmlns="http://www.w3.org/2000/svg" viewBox="0 0 583.82 583.62">
  <defs>
    <style>
      .cls-1 {
        fill: #a8adcf;
      }

      .cls-1, .cls-2, .cls-3 {
        stroke-width: 0px;
      }

      .cls-2 {
        fill: #faf0fa;
      }

      .cls-3 {
        fill: #fff;
      }
    </style>
  </defs>
  <g id="Layer_1-2" data-name="Layer 1">
    <path class="cls-2" d="M583.82,288.88c-252.1,2.53-290.8,42.72-283.76,294.74-7.04-252.02-47.96-291.41-300.07-288.88,252.1-2.53,290.8-42.72,283.76-294.74,7.04,252.02,47.96,291.41,300.07,288.88Z"/>
    <path class="cls-1" d="M441.39,291.78c-129.18.67-148.9,21.16-144.67,150.27-4.23-129.11-25.3-149.39-154.47-148.72,129.18-.67,148.9-21.16,144.67-150.27,4.23,129.11,25.3,149.39,154.47,148.72Z"/>
    <path class="cls-3" d="M289.85,295.07c11.57-4.72,11.57.82,0-3.9,4.72,11.57-.82,11.57,3.9,0-11.57,4.72-11.57-.82,0,3.9-4.72-11.57.82-11.57-3.9,0Z"/>
  </g>
</svg>