<svg viewBox="0 0 48 48" xmlns="http://www.w3.org/2000/svg"><rect fill="none" height="33.92" rx="3" stroke="#231f20" stroke-miterlimit="10" stroke-width="2" width="33.92" x="7.04" y="7.04"/><g fill="#231f20"><path d="m11.77 15.52h6.71c3.44 0 5.78 1.93 5.78 5.05 0 3.5-2.61 5.18-5.88 5.18h-3.47v6.44h-3.14zm3.14 7.71h3.09c1.88 0 3.05-.81 3.05-2.59s-1.3-2.6-3-2.6h-3.14z"/><path d="m28.6 28.53a2.36 2.36 0 0 0 2.58 1.74c1.45 0 2-.56 2-1.44s-.54-1.3-2.51-1.79c-3.87-.95-4.56-2.14-4.56-3.87s1.29-3.66 4.84-3.66 4.85 2 5 3.68h-2.89c-.14-.57-.54-1.52-2.25-1.52-1.34 0-1.76.61-1.76 1.25s.43 1.08 2.53 1.57c4 .94 4.65 2.3 4.65 4.13 0 2.09-1.62 3.86-5.16 3.86s-5.14-1.75-5.43-3.95z"/></g></svg>