<?xml version="1.0" ?><svg viewBox="0 0 48 48" xmlns="http://www.w3.org/2000/svg"><defs><style>.cls-1{fill:none;stroke:#231f20;stroke-miterlimit:10;stroke-width:2px;}.cls-2{fill:#231f20;}</style></defs><title/><g data-name="01 - PS" id="_01_-_PS"><rect class="cls-1" height="33.92" rx="3" width="33.92" x="7.04" y="7.04"/><path class="cls-2" d="M13.11,15.66h6.7c3.44,0,5.78,1.93,5.78,5.06,0,3.49-2.6,5.18-5.88,5.18H16.24v6.44H13.11Zm3.13,7.71h3.13c1.88,0,3.05-.8,3.05-2.59s-1.29-2.59-3-2.59H16.24Z"/><path class="cls-2" d="M27.85,23.31c0-1.4,0-2.46,0-3.37h2.94c0,.31.08,1.45.08,2.3a4.08,4.08,0,0,1,4-2.58v2.89c-2.5,0-4,.87-4,4.18v5.61h-3Z"/></g></svg>