<?xml version="1.0" encoding="UTF-8"?>
<svg id="Layer_2" data-name="Layer 2" xmlns="http://www.w3.org/2000/svg" viewBox="0 0 482.07 245.09">
  <defs>
    <style>
      .cls-1 {
        fill: #000;
        stroke-width: 0px;
      }
    </style>
  </defs>
  <g id="Layer_1-2" data-name="Layer 1">
    <g>
      <path class="cls-1" d="M259.45,1.11c58.88,0,113.88,11.09,154.86,31.22,41.07,20.17,64.55,47.78,66.11,77.73.85,16.21-4.61,32.28-16.23,47.76-11.28,15.03-27.85,28.88-49.25,41.16-44.12,25.31-103.74,41.1-167.87,44.46-8.34.44-16.75.66-25.02.66-58.88,0-113.88-11.09-154.86-31.22C26.13,192.7,2.65,165.09,1.08,135.14-2.4,68.51,102.28,8.68,234.43,1.77c8.34-.44,16.75-.66,25.02-.66M259.45.11c-8.26,0-16.61.22-25.07.66C101.46,7.72-3.43,67.91.09,135.2c3.3,63,100.5,109.9,221.98,109.9,8.26,0,16.61-.22,25.07-.66,132.92-6.95,237.82-67.14,234.3-134.43C478.13,47.01,380.93.11,259.45.11h0Z"/>
      <path class="cls-1" d="M232.32,1c3.89,0,7.83.05,11.74.14,64.2,1.56,124.23,15.68,169.04,39.75,21.73,11.67,38.68,25.05,50.38,39.77,12.05,15.15,17.96,31.06,17.56,47.29-.76,31.15-24.99,60.19-68.23,81.76-43.31,21.61-101.16,33.51-162.9,33.51-3.89,0-7.83-.05-11.74-.14-64.2-1.56-124.23-15.68-169.04-39.75-21.73-11.67-38.68-25.05-50.38-39.77C6.7,148.4.8,132.49,1.19,116.27c.76-31.15,24.99-60.19,68.23-81.76C112.73,12.9,170.58,1,232.32,1M232.32,0C104.64,0,1.78,50.88.19,116.25c-1.64,67.36,104.9,124.59,237.96,127.83,3.94.1,7.87.14,11.76.14,127.68,0,230.54-50.88,232.13-116.25C483.69,60.61,377.15,3.38,244.09.14c-3.94-.1-7.87-.14-11.76-.14h0Z"/>
    </g>
  </g>
</svg>